# xmcd
# 
# Track frame offsets:
#     150
#     11814
#     23050
#     35387
#     48600
#     61241
#     73726
#     85676
#     98134
#     109804
#     124232
#     136489
#     148978
#     160913
#     173177
#     186533
#     199521
#     212097
#     224761
#     238141
#     250603
#     262278
#     273174
#     285595
# 
# Disc length: 3956
# 
# Revision: 4
# Processed by: cddbd v1.5.2PL0 Copyright (c) Steve Scherf et al.
# Submitted via: fre:ac v1.0.17
# 
DISCID=780f7218
DTITLE=Various Artist - Greatest Country Hits - Golden Greats CD 1
DYEAR=0
DGENRE=Country
TTITLE0=Eddy Arnold - Bouquet Of Roses
TTITLE1=Tex Ritter - When It's Lamplighting Time In The Valley
TTITLE2=Al Dexter - Guitar Polka
TTITLE3=Red Foley - Smoke On The Water
TTITLE4=Ernest Tubb and The Andrews Sisters - I'm Biting My Fingernails And Thinking Of You
TTITLE5=Gene Autry - At Mail Call Today
TTITLE6=Foy Willing - Detour
TTITLE7=Roy Acuff - The Prodigal Son
TTITLE8=Bob Wills and His Texas Playboys - New San Antonio Rose
TTITLE9=Ernest Tubb - Soldier's Last Letter
TTITLE10=Hank Williams - Lovesick Blues
TTITLE11=Ted Daffan's Texans - No Letter Today
TTITLE12=Floyd Tillman - Each Night At Nine
TTITLE13=Eddy Arnold - I'll Hold You In My Heart
TTITLE14=Rosalie Allen - I Want To Be A Cowboy's Sweetheart
TTITLE15=Spade Cooley - Shame On You
TTITLE16=Al Dexter - Pistol Packin' Mama
TTITLE17=Bob Wills and His Texas Playboys - New Spanish Two Step
TTITLE18=Vaughn Monroe - Riders In The Sky
TTITLE19=Ernest Tubb - It's Been So Long, Darling
TTITLE20=Roy Acuff - Waltz Of The Wind
TTITLE21=Eddy Arnold - It's A Sin
TTITLE22=Sons of the Pioneers - Cool Water
TTITLE23=Floyd Tillman - They Took the Stars Out Of Heaven
EXTD=
EXTT0=
EXTT1=
EXTT2=
EXTT3=
EXTT4=
EXTT5=
EXTT6=
EXTT7=
EXTT8=
EXTT9=
EXTT10=
EXTT11=
EXTT12=
EXTT13=
EXTT14=
EXTT15=
EXTT16=
EXTT17=
EXTT18=
EXTT19=
EXTT20=
EXTT21=
EXTT22=
EXTT23=
PLAYORDER=
